<?xml version="1.0" encoding="UTF-8" standalone="no"?>
<svg
   xmlns:dc="http://purl.org/dc/elements/1.1/"
   xmlns:cc="http://creativecommons.org/ns#"
   xmlns:rdf="http://www.w3.org/1999/02/22-rdf-syntax-ns#"
   xmlns:svg="http://www.w3.org/2000/svg"
   xmlns="http://www.w3.org/2000/svg"
   id="svg8"
   version="1.1"
   viewBox="0 0 80.201021 21.166667"
   height="80"
   width="303.12198">
  <defs
     id="defs2" />
  <metadata
     id="metadata5">
    <rdf:RDF>
      <cc:Work
         rdf:about="">
        <dc:format>image/svg+xml</dc:format>
        <dc:type
           rdf:resource="http://purl.org/dc/dcmitype/StillImage" />
        <dc:title></dc:title>
      </cc:Work>
    </rdf:RDF>
  </metadata>
  <g
     transform="translate(6.0875333,-275.83333)"
     id="layer1">
    <g
       transform="matrix(0.26458333,0,0,0.26458333,211.73777,-16.409305)"
       style="display:none"
       id="Hilfslinien_anzeigen_1_" />
    <g
       id="text12"
       style="font-style:normal;font-weight:normal;font-size:10.58333302px;line-height:1.25;font-family:sans-serif;letter-spacing:0px;word-spacing:0px;fill:#ffffff;fill-opacity:1;stroke:none;stroke-width:0.26458332"
       aria-label="THE LÆND">
      <path
         id="path11"
         style="font-style:normal;font-variant:normal;font-weight:800;font-stretch:normal;font-size:12.69999981px;font-family:'Avenir Next LT Pro';-inkscape-font-specification:'Avenir Next LT Pro Ultra-Bold';fill:#ffffff;stroke-width:0.26458332"
         d="m 5.2323999,284.47358 v 6.4389 H 2.2098 v -6.4389 H 0 v -2.5527 h 7.4421999 v 2.5527 z" />
      <path
         id="path13"
         style="font-style:normal;font-variant:normal;font-weight:800;font-stretch:normal;font-size:12.69999981px;font-family:'Avenir Next LT Pro';-inkscape-font-specification:'Avenir Next LT Pro Ultra-Bold';fill:#ffffff;stroke-width:0.26458332"
         d="m 13.850739,290.91248 v -3.4163 h -2.4638 v 3.4163 H 8.3643389 v -8.9916 h 3.0099001 v 3.048 h 2.4638 v -3.048 h 3.0353 v 8.9916 z" />
      <path
         id="path15"
         style="font-style:normal;font-variant:normal;font-weight:800;font-stretch:normal;font-size:12.69999981px;font-family:'Avenir Next LT Pro';-inkscape-font-specification:'Avenir Next LT Pro Ultra-Bold';fill:#ffffff;stroke-width:0.26458332"
         d="m 18.559065,290.91248 v -8.9916 h 6.1849 v 2.5146 h -3.3401 v 0.7747 h 3.1369 v 2.3495 h -3.1369 v 0.8382 h 3.556 v 2.5146 z" />
      <path
         id="path17"
         style="font-style:normal;font-variant:normal;font-weight:800;font-stretch:normal;font-size:12.69999981px;font-family:'Avenir Next LT Pro';-inkscape-font-specification:'Avenir Next LT Pro Ultra-Bold';fill:#ffffff;stroke-width:0.26458332"
         d="m 29.398714,290.91248 v -8.9916 h 3.048 v 6.4008 h 2.9845 v 2.5908 z" />
      <path
         id="path19"
         style="font-style:normal;font-variant:normal;font-weight:800;font-stretch:normal;font-size:12.69999981px;font-family:'Avenir Next LT Pro';-inkscape-font-specification:'Avenir Next LT Pro Ultra-Bold';fill:#ffffff;stroke-width:0.26458332"
         d="m 41.77903,290.91248 v -1.3208 h -2.2479 l -0.6223,1.3208 h -3.3782 l 4.4958,-8.9916 h 7.747 v 2.5146 h -3.2131 v 0.7747 h 3.0099 v 2.3495 h -3.0099 v 0.8382 h 3.429 v 2.5146 z m -0.0508,-6.477 -1.2954,2.8448 h 1.3462 v -2.8448 z" />
      <path
         id="path21"
         style="font-style:normal;font-variant:normal;font-weight:800;font-stretch:normal;font-size:12.69999981px;font-family:'Avenir Next LT Pro';-inkscape-font-specification:'Avenir Next LT Pro Ultra-Bold';fill:#ffffff;stroke-width:0.26458332"
         d="m 49.242464,290.91248 v -8.9916 h 3.0099 l 2.5654,4.5593 h 0.0508 l -0.127,-4.5593 h 2.8702 v 8.9916 h -3.0861 l -2.4892,-4.2926 h -0.0508 l 0.127,4.2926 z" />
      <path
         id="path23"
         style="font-style:normal;font-variant:normal;font-weight:800;font-stretch:normal;font-size:12.69999981px;font-family:'Avenir Next LT Pro';-inkscape-font-specification:'Avenir Next LT Pro Ultra-Bold';fill:#ffffff;stroke-width:0.26458332"
         d="m 62.895162,290.91248 h -3.6068 v -8.9916 h 3.3528 q 0.889,0 1.651,0.127 0.762,0.127 1.4605,0.4572 0.7112,0.3175 1.1938,0.8128 0.4953,0.4826 0.7874,1.27 0.2921,0.7747 0.2921,1.778 0,1.143 -0.4191,2.0447 -0.4191,0.889 -1.1557,1.4224 -0.7239,0.5334 -1.6256,0.8128 -0.9017,0.2667 -1.9304,0.2667 z m -0.0254,-6.4262 h -0.6731 v 3.8354 h 0.5588 q 2.2098,0 2.2098,-1.9812 0,-0.8636 -0.5715,-1.3589 -0.5588,-0.4953 -1.524,-0.4953 z" />
    </g>
  </g>
</svg>
