<?xml version="1.0" encoding="UTF-8" standalone="no"?>
<svg
   xmlns:dc="http://purl.org/dc/elements/1.1/"
   xmlns:cc="http://creativecommons.org/ns#"
   xmlns:rdf="http://www.w3.org/1999/02/22-rdf-syntax-ns#"
   xmlns:svg="http://www.w3.org/2000/svg"
   xmlns="http://www.w3.org/2000/svg"
   xmlns:sodipodi="http://sodipodi.sourceforge.net/DTD/sodipodi-0.dtd"
   xmlns:inkscape="http://www.inkscape.org/namespaces/inkscape"
   id="svg8"
   version="1.1"
   viewBox="0 0 78 77.999999"
   height="78mm"
   width="78mm"
   sodipodi:docname="sticker.svg"
   inkscape:version="0.92.3 (2405546, 2018-03-11)">
  <sodipodi:namedview
     pagecolor="#ffffff"
     bordercolor="#666666"
     borderopacity="1"
     objecttolerance="10"
     gridtolerance="10"
     guidetolerance="10"
     inkscape:pageopacity="0"
     inkscape:pageshadow="2"
     inkscape:window-width="1920"
     inkscape:window-height="976"
     id="namedview60"
     showgrid="false"
     inkscape:zoom="1.4878143"
     inkscape:cx="430.5917"
     inkscape:cy="67.38326"
     inkscape:window-x="0"
     inkscape:window-y="27"
     inkscape:window-maximized="1"
     inkscape:current-layer="svg8" />
  <defs
     id="defs2" />
  <metadata
     id="metadata5">
    <rdf:RDF>
      <cc:Work
         rdf:about="">
        <dc:format>image/svg+xml</dc:format>
        <dc:type
           rdf:resource="http://purl.org/dc/dcmitype/StillImage" />
        <dc:title></dc:title>
      </cc:Work>
    </rdf:RDF>
  </metadata>
  <g
     id="g328">
    <g
       transform="matrix(0.41176482,0,0,0.41176751,-4.2352966,-43.936104)"
       id="g896">
      <path
         inkscape:connector-curvature="0"
         id="path39"
         d="m 37.313031,190.81989 -0.0099,-0.009 -0.192562,0.52256 0.06978,0.54868 0.04444,0.39191 0.173141,0.46159 0.06978,0.1916 0.722882,0.74899 0.426732,0.68803 -0.243913,-0.0435 -0.722882,-0.83608 -0.539964,-0.29612 -0.01646,-0.0348 -0.287362,-0.46159 -0.02633,-0.91447 v -0.009 l 0.29625,-1.02768 0.35708,-1.23671 0.558265,-0.86221 0.261358,-0.40933 0.391906,-0.2003 0.0099,0.44417 0.191575,0.24385 h 0.0099 l 0.539965,0.0523 0.192562,0.14806 0.261358,-0.0523 0.49556,0.33966 0.889209,-0.7577 1.515416,-0.24385 0.409318,-0.38321 0.383216,0.0523 h 0.0099 l -0.07834,-0.83608 -0.02633,-0.26998 -0.522552,-0.15675 -0.183674,0.36579 -0.565212,-0.0958 -0.09579,-0.14806 -0.129692,-0.2003 h -0.0099 l -0.791644,-0.20902 h -0.0099 v 0.0174 l -0.04345,0.22643 0.16557,0.40933 0.0099,0.0436 -0.217579,0.21775 -1.480557,-0.0348 -0.731571,-0.26126 -0.261358,-0.28739 v -0.009 l -0.053,-0.3745 v -0.026 l 0.25247,-0.64449 0.0099,-0.009 0.330944,-0.26999 0.565244,-0.15678 h 0.0099 v -0.009 l 0.671499,-0.76641 0.905734,-0.18288 -0.09579,0.40933 h 0.0099 l 0.129691,0.0784 1.010277,-0.68802 1.106065,0.13064 0.539964,-0.33095 0.810835,-0.10451 0.199475,-0.13933 0.313695,-0.21775 5.216792,-0.40933 1.027689,0.49643 0.522552,0.0697 0.192562,0.31353 0.879631,-0.24384 1.532829,-0.68803 0.5661,-0.51384 0.643618,-0.57481 0.348357,-0.0958 h 0.0099 l 0.165571,-0.40062 1.410872,-1.33251 h 0.0099 l 0.07834,-0.36579 -0.191574,-0.18288 0.557377,-0.47901 0.671499,-0.18288 0.479003,0.0522 1.497969,-0.54868 h 0.0099 l 0.418042,-0.74028 0.304808,-0.009 0.340522,0.20902 0.705469,0.0523 0.139237,-0.0697 0.304808,-0.13933 h -0.01646 l 0.01646,-0.009 v -0.0174 l -1.097341,-0.0958 -0.0609,-0.026 -1.035524,-0.479 0.444177,-0.26999 0.148125,-0.30481 -0.129692,-0.65319 -0.400628,-0.64448 -0.531241,-0.52255 -0.574823,-1.24541 -0.57479,0.13064 -0.557378,0.34837 -0.20902,0.33966 -0.400628,1.60249 -0.80998,0.13934 -0.04345,0.68802 -0.278804,0.30481 -0.183016,0.64448 -0.305795,0.41804 -0.242925,0.0348 -0.383215,0.33966 -1.28026,0.40933 -2.891429,-0.0784 -0.20902,-0.1916 -0.722882,-0.0523 -0.896155,-0.6619 -0.03489,-0.2787 0.592236,-0.84479 -0.03489,-0.33095 -0.470312,-0.41804 -0.129692,-0.53127 0.121792,-0.36578 0.487725,-0.46159 0.209021,-0.061 1.053793,-0.34837 1.349943,-1.27154 h 0.0099 l 0.235025,-0.35708 0.383182,-0.39192 0.199475,-0.8535 -0.339667,-1.21058 -0.05299,-0.17419 -2.063181,0.86221 -0.262017,0.26126 -0.382326,0.19161 -0.261358,-0.026 -0.600926,-0.42675 -0.844805,-0.13933 0.792533,-0.53126 0.03489,-0.0174 0.138579,0.061 0.488614,0.23516 0.391905,-0.11323 0.530386,0.11323 2.020521,-0.82737 0.496449,-1.09736 0.339633,-0.80996 0.287363,-0.33966 -0.29625,-0.28739 -0.505139,-0.91447 -0.261358,0.009 -1.010244,0.12192 h -0.0099 l -0.401484,0.17419 h -0.653197 l -0.226467,-0.43545 -0.77512,0.69673 -0.156683,-0.13934 -0.243913,-0.21774 -0.06089,-0.34837 0.391905,0.0523 0.313366,-0.17419 0.330977,-0.0174 0.618339,-0.81866 0.357079,-0.11323 0.121792,-0.2003 -0.383216,-0.53997 -0.287362,0.0174 -0.226466,-1.11478 -0.29625,-0.47029 0.053,-0.2874 -0.479859,-0.68803 -0.183016,-0.53126 h -0.0099 l -0.365802,-0.29612 -0.783811,-0.22643 -1.401327,-0.80996 -0.722849,-0.68802 -0.330943,-0.85351 0.0869,-1.40218 -0.139238,-0.45288 -0.444177,-0.0871 -0.496415,-0.32226 -0.261358,-0.009 -0.35708,-0.45288 h -0.0099 l -0.522551,-0.0523 -0.08789,3.04822 -0.235024,1.24542 -1.063405,0.17419 -0.129691,-0.13064 -0.583513,0.16547 -0.252471,0.0697 -0.322254,0.55739 0.05234,0.30481 -0.452867,1.28026 -0.653197,0.54867 -0.113234,0.0174 -1.167026,0.21774 -0.322253,0.13065 -0.340556,0.13934 -0.400595,0.0348 -0.522552,-0.25257 -0.487725,0.0871 -2.273091,1.49799 -0.862218,-0.6532 -0.07834,-0.40933 0.417152,-0.40062 0.192562,-0.1742 0.879599,0.0174 0.844805,-0.17419 1.410905,-0.27871 2.499524,-0.86221 h 0.0099 l 0.0099,-0.0174 0.417152,-0.62706 0.374493,0.0348 0.697602,-1.14091 0.138579,-0.22643 0.679333,-0.0871 0.531241,-0.25257 h 0.0099 l 0.479003,-0.64448 0.348357,-0.16547 v -0.009 l 0.104674,-0.50514 -0.053,-2.75211 -0.870908,-0.1916 0.130679,-0.58352 0.417152,-0.29612 0.644475,-0.19161 -0.313696,-0.45288 -0.208033,-1.0451 -0.513828,-0.53997 0.05991,-0.67932 -0.347501,-1.06252 -0.488581,-0.53997 -0.164584,-0.47901 -0.548687,-0.23516 -0.584401,-0.20029 -0.156684,-0.81867 -0.862218,-1.44573 -1.767096,-1.65475 -0.01975,-0.98414 0.322254,-2.09021 -0.104346,-0.18288 -0.183016,-0.34837 h -0.0099 l -0.217579,-0.11323 -0.04345,-0.0174 -2.003997,0.10451 -2.124175,0.12193 -1.402183,0.0784 -0.156683,0.0871 -2.786952,1.68087 -0.618339,0.13065 -0.496448,0.33095 -0.50425,0.0348 -0.03489,0.32226 -0.270904,0.24385 -0.400628,0.0697 -0.72285,-0.21774 -0.809946,-0.50514 -0.391938,-0.25257 -0.01646,-0.009 -0.600925,-0.74029 -0.200133,-0.73157 v -0.009 l -0.39105,-0.026 -0.688023,-0.0522 -0.217579,-0.31353 -0.270904,0.33966 -0.164583,0.53126 0.03489,0.40933 -0.453756,0.33095 -0.862185,0.1132 -0.312708,0.23516 -0.548687,1.54153 0.07834,0.5661 -0.16557,0.63577 0.287362,0.83608 -0.121792,0.67061 0.0948,0.51385 -0.04345,0.0958 -0.02633,0.0436 -0.139238,0.2874 -0.06978,0.86221 -0.01975,0.1742 0.139238,0.6706 0.261358,0.11324 0.01975,1.09736 -0.226467,0.54868 -0.03489,0.0784 -0.04444,0.10451 0.0099,0.68803 0.04345,0.14805 0.139237,0.51385 -0.139237,0.42675 -0.174129,0.0697 -0.08723,-0.0784 -0.558266,-0.53997 -0.199475,-1.04511 -0.04345,-0.22643 0.191575,-1.76797 0.0099,-0.18288 0.053,-0.8448 0.460701,-9.11854 0.278804,-1.16703 0.20902,-0.86221 0.06978,-0.27871 1.541551,-3.66657 1.680854,-3.4053 0.505139,-1.02769 0.479891,-1.37606 0.36577,-0.58351 0.08723,-0.14806 0.252471,-0.68803 0.113233,-0.29612 0.66192,-0.68803 0.88921,-0.15675 0.530385,0.0523 0.523408,0.37449 0.470312,0.0871 0.02633,0.009 0.365769,0.0697 0.618339,0.11324 -0.731572,0.44416 -0.01975,0.009 -0.304808,-0.11323 -0.435454,-0.41804 -1.934312,0.12192 -0.226467,0.2003 0.121792,0.69674 0.236012,0.1916 0.757708,-0.0871 0.04345,0.0174 0.261358,0.14806 0.627917,0.73158 0.330944,0.10451 0.0948,0.61835 -1.341221,0.79254 -0.05234,0.0348 -0.365802,0.20902 -0.93187,0.10451 -0.199474,0.1742 -0.139238,0.13065 -0.05299,0.14805 -0.29625,0.34837 -0.487726,0.41804 v 0.009 l -0.01975,0.0174 -0.104345,0.13064 -0.992864,1.83765 0.313695,0.61835 -0.08789,0.87963 0.296249,0.57481 -0.01646,0.14806 -0.09579,0.69673 v 0.10451 l 0.05299,0.78383 0.05234,1.05382 0.02633,0.37449 0.548687,1.01027 0.348357,0.33095 2.882739,1.38477 3.048244,0.009 h 0.04345 l 0.192562,-0.0958 0.425875,-0.20902 0.531275,-0.29612 0.444144,-0.10451 0.313695,-0.0348 0.740295,-0.0436 4.380709,-0.2787 1.106064,-0.0697 0.549576,-0.0523 0.199475,-0.25257 0.02633,-0.0348 -0.08789,-0.24384 0.104346,-0.40934 0.09579,-0.10451 0.113233,-0.13064 0.174129,-0.2003 0.06978,-0.15675 h 0.0099 l 1.558932,-0.34837 0.923179,0.17419 1.741849,1.36735 1.437009,0.026 0.139237,-0.2787 0.07834,-0.14806 0.583513,-1.10607 1.358634,-0.12192 1.3508,0.10451 0.495526,0.24384 0.02633,0.0523 0.374492,0.74029 0.827392,0.80125 0.93187,-0.2874 0.347501,-0.3832 0.04444,-0.009 1.070383,-0.27871 1.193162,0.0348 h 0.243912 l 1.088652,0.17419 2.229541,0.33966 0.29625,0.0523 0.305795,0.24384 0.85264,0.71416 1.498825,0.6619 3.369609,0.40933 1.689577,-0.0348 1.28026,0.13933 0.653164,0.0697 2.708578,1.19316 0.879631,0.39191 2.133754,1.76797 1.045103,1.43702 -0.04345,1.24541 0.826503,0.41805 0.435454,-0.1742 0.35708,-0.6619 1.681743,0.31353 0.0948,0.0174 0.731572,0.13065 0.880487,-0.90576 0.01646,-0.0174 0.984141,-1.89861 1.227988,-0.40933 0.05234,-0.0174 0.053,-0.009 3.692686,-0.5661 -0.426732,0.52255 -0.827392,0.13065 -0.852639,0.50513 -0.627918,0.2003 h -0.0099 l 0.29625,0.71416 0.104346,0.25257 0.139237,0.52255 0.383182,0.40062 -0.435454,0.45288 0.286704,0.78383 0.02633,0.0871 0.0099,-0.009 0.09579,-0.0697 0.174129,-0.74899 0.191575,-0.15678 0.5661,-0.45288 0.409318,-0.98414 0.383215,-0.23516 1.245434,-0.0784 0.235024,0.11323 0.35708,-0.13065 0.5661,-0.74028 0.391905,-0.5748 0.444177,0.061 0.0948,-0.0958 0.748985,-0.74028 0.391905,-0.24385 0.618372,-0.14806 0.531241,-0.3832 0.400629,-0.63577 0.330943,-0.0174 0.277817,-0.35708 0.07933,-0.70544 0.242924,-0.0784 0.88052,0.2003 0.226466,-0.17419 0.199475,0.0435 -0.766431,0.68803 -0.400595,0.6619 -0.261358,0.98414 0.235025,0.68803 0.748985,1.02769 0.418041,0.0348 0.217579,-0.0697 0.365769,-0.1132 0.139238,0.0871 1.340365,0.90576 0.322253,-0.23515 0.313696,0.009 0.339666,0.26126 0.706325,0.0871 1.567657,0.85351 0.70543,0.026 2.29139,0.69674 0.22647,0.35707 0.32225,0.15679 0.62707,-0.18289 0.50513,0.0436 0.0349,0.19161 0.12179,0.67061 0.44418,0.52255 1.74181,1.96828 0.91535,0.32226 1.15833,0.1916 0.23503,-0.55738 0.11323,-0.25257 0.75771,-0.82738 0.0263,-0.0348 0.12179,0.33095 0.25247,0.0697 0.23602,0.35708 0.0872,-0.54868 -0.0523,-0.26998 -0.19256,-0.10451 0.17412,-0.91447 -0.14812,-0.67932 0.26992,-0.60093 0.37534,0.19161 0.77512,0.40933 1.6983,1.21058 0.45287,0.99285 0.11323,0.23515 0.35708,0.33966 0.41021,2.87404 0.38233,0.80996 0.01,0.009 0.52344,0.60093 1.0538,1.228 v 0.009 l 0.3475,0.30481 h 0.01 l 0.61837,0.56609 0.0698,0.81867 -0.13068,0.67932 -0.6532,-1.01027 0.28736,-0.38321 -0.3919,0.0435 v -0.061 l -0.01,-0.22643 h -0.01 l -0.25247,-0.0871 h -0.01 l -0.19947,0.24385 -0.12179,0.14806 -0.46159,0.0871 -0.39191,0.2874 -0.26136,-0.0522 0.17413,-0.46159 -0.10434,-0.55739 0.14812,-0.40062 -0.14812,-0.14806 -0.34839,-0.0348 -0.16459,0.25257 -0.35708,0.53997 0.01,0.009 0.2788,0.55739 -0.17413,0.35708 -0.5051,-0.061 -0.54,0.40933 -0.37449,0.0784 -0.35708,0.0523 v 0.009 l -0.41804,0.40934 h -0.01 l -0.0434,0.54868 -0.0783,0.90575 -0.0263,0.23516 -0.0349,0.18288 -0.13924,0.62707 -0.12969,0.46159 0.0165,0.49642 0.26135,-0.0784 -0.33097,0.67931 -0.51383,-0.0523 -0.37449,-0.10451 0.0165,-0.39191 h -0.01 l -0.13068,-0.0784 -0.22647,0.33966 0.13068,0.28739 -0.60092,0.18289 -0.91446,0.93188 -0.15668,0.49643 -0.86219,0.4703 -0.39194,0.36578 -0.48769,-0.026 -0.53996,0.25257 v 0.33966 l -0.66192,0.41804 h -0.01 l -0.15668,0.26998 -0.11324,0.2003 -0.37449,-0.26126 -0.32225,-0.10451 -0.41018,0.65319 0.28737,0.12192 0.13923,-0.25256 0.11324,-0.20903 0.24391,0.10451 -0.0349,0.14806 -0.0872,0.33966 -0.71416,0.13065 -0.41804,0.39192 -0.59224,-0.18289 -0.41715,-0.026 -0.0698,-0.44417 -0.20902,0.15675 -0.18302,1.0451 0.29625,-0.0784 -0.20902,0.48771 -0.37449,0.29612 -0.26136,0.2003 -0.13068,0.33965 -0.73157,1.06253 -0.16557,0.73157 -0.39102,0.20902 -0.24391,-0.0523 -0.28736,-0.23516 -0.24392,0.20902 0.24392,0.18289 -0.23503,0.58352 -0.11422,0.26998 -0.32127,0.0523 h -0.209015 l -0.03489,-0.40933 -0.174129,-0.26126 -0.984141,0.15674 -0.627062,0.0784 -0.558266,0.25257 -0.539964,-0.0523 -0.634896,0.20902 -0.113233,0.44417 -0.470313,-0.39192 0.08723,-0.28739 0.157671,-0.0697 0.0688,-0.13933 0.0099,-0.0174 h 0.0099 l -0.0609,-0.10451 -0.121791,-0.23516 -0.191575,-0.10451 -0.410207,0.10451 -0.522552,0.23516 h -0.313695 l 0.03489,0.23516 0.08789,0.2787 -0.46159,0.2613 -0.226466,0.36578 -0.305796,0.4703 -0.861329,-0.20902 -0.741151,0.13065 -0.191574,-0.20903 -0.488582,0.18289 0.227454,0.36579 0.356191,0.20029 0.200462,0.20902 0.6793,-0.026 -0.0609,0.4703 -0.278804,0.18288 0.01975,0.2874 0.417152,0.49642 -0.129691,0.59223 0.05234,0.28739 0.261358,0.0784 0.192562,-0.33966 0.08723,-0.48772 v -0.009 l -0.01646,-0.009 -0.262016,-0.19161 0.053,-0.49643 0.226466,-0.88834 0.409351,-0.3048 0.732428,-0.15679 1.009388,-0.39191 h 0.548687 l 0.296908,0.31353 0.242925,-0.23515 1.246289,0.31353 0.121792,0.19161 0.07834,0.12192 0.113234,0.46159 0.461589,0.31353 0.304808,-0.0523 0.453756,0.41804 0.931907,-0.026 0.19158,-0.49642 -0.0435,-0.48772 -0.01,-0.009 -0.25247,-0.749 h -0.01 l -0.460701,-0.36578 1.000671,-0.33966 0.20902,-0.72287 0.0435,-0.13064 0.23601,0.0523 -0.01,0.0697 -0.0872,0.49643 0.13068,0.0784 0.55741,-0.59223 0.58351,-1.6112 0.37449,-0.26126 0.41804,-0.23516 h 0.01 l 0.11323,-0.47029 0.49642,-0.33966 0.33966,0.39191 h 0.01 l 1.4109,-1.21929 h 0.01 l 0.13858,-0.41804 0.6532,-0.62706 h 0.01 l 0.0435,-0.25257 0.0165,-0.0871 0.26202,0.0784 0.78295,-0.30481 h 0.01 l 0.15768,-0.36579 1.019,-0.64448 h 0.01 l 1.16703,-0.46158 0.2788,-0.44418 0.98414,-0.78382 1.08865,-0.40934 0.19158,-0.3048 0.42673,-0.061 v -0.32225 l 0.47031,-0.92318 -0.40935,-0.63577 -0.0444,-0.61835 0.13924,-0.14806 0.0263,-0.27871 -0.0523,-0.40933 0.17347,-0.65319 0.34835,-0.54868 0.45287,-0.2003 0.17413,0.10451 0.69675,0.0174 0.88048,0.3745 0.0872,0.39191 h 0.01 l 0.28736,-0.0697 0.20013,-0.40933 0.23503,-0.13934 0.11323,0.33095 0.26202,0.76641 0.67061,0.31353 0.31369,-0.17419 0.28736,0.2787 -0.0879,1.3238 0.0698,0.92318 0.053,0.77512 -0.3137,1.68958 v 4.83361 l -0.19157,0.25257 -0.55827,0.34837 h -0.01 l -0.11323,0.2874 -0.479,1.19316 -0.25247,0.28739 -0.5661,0.61836 -1.1322,0.97543 -0.3745,0.0871 -1.27153,0.92317 -1.85505,0.76641 -1.10695,0.70545 -0.0263,0.009 -0.64362,0.14805 -0.40062,0.26999 -0.24392,-0.009 -0.37538,-0.35708 -0.51383,0.0697 -0.12179,0.0174 -0.15668,0.0174 v 0.009 h -0.01 l -0.01,0.13933 -0.0349,0.42675 0.2709,0.72287 0.53997,0.74028 0.40062,0.27871 0.43546,0.13933 0.54869,-0.061 0.60876,-0.21771 0.16557,-0.0523 0.65319,0.061 0.62707,-0.15678 0.34052,-0.33095 0.19947,-0.50514 0.26136,0.0784 2.16858,-0.5661 1.61989,-0.16547 0.1218,-0.009 0.28736,-0.15675 0.0349,-0.0174 0.23601,-0.13065 2.84791,-0.39192 0.44418,-0.20029 0.92404,0.0523 1.59379,-0.40063 1.05379,0.009 1.80195,1.20187 1.14178,1.12349 0.01,0.009 0.66189,0.23515 -0.22647,0.67932 -0.41804,0.061 h -0.01 l -0.54868,0.89705 -0.49642,0.36579 0.65317,1.35864 0.54957,0.80124 0.0869,0.48772 0.0523,0.2874 -0.17347,0.53997 -0.01,0.009 0.0198,0.32225 0.01,0.13934 -0.58352,-0.10451 -0.33094,0.0697 -0.57482,0.42675 -0.0523,0.29612 0.0698,0.0958 0.26992,0.33095 -0.43545,0.14806 -0.35708,0.5748 -0.31337,0.10451 -0.62706,-0.16547 -0.29625,0.34837 v 0.009 l 0.54865,0.1916 0.0434,0.0174 v 0.0175 l -0.28736,0.6619 0.21758,0.37449 0.32225,0.12193 0.34053,0.99285 -0.0784,0.40062 -0.43545,0.54868 -0.75771,0.94931 0.0349,0.28739 v 0.009 l 0.23503,0.026 0.0349,-0.0348 0.87091,-0.90576 0.32225,0.0348 0.73157,-0.67932 0.27091,-0.23516 -0.14878,-0.49642 0.0609,-0.71416 0.20046,-0.37449 0.01,-0.009 0.19157,-0.35708 -0.0609,-0.36578 0.89707,-0.4703 -0.22646,-0.74899 0.53999,-0.67932 0.19948,-0.23516 0.19256,-0.20902 0.0263,-0.14806 0.13067,-0.76641 0.38322,-0.2874 v -0.0958 -0.28739 l 0.67844,-0.88834 0.0784,-0.009 0.64447,-0.0784 2.40374,-0.30481 0.38321,-0.33095 -0.37449,-0.061 1.1139,-1.01027 1.86463,-0.0697 2.96983,0.90575 0.7664,0.40934 0.8265,0.74899 1.93432,1.09736 0.54868,0.49642 1.44573,0.67932 1.14873,0.13934 2.22174,0.65319 1.35863,0.78383 0.98411,0.28739 1.19316,0.55739 0.25247,0.18289 1.14962,0.86221 0.3475,0.40933 0.42676,0.99285 v 0.009 l 0.77512,0.62706 0.72285,0.32226 0.20046,0.2787 -0.12278,0.27871 0.25247,0.40062 h 0.01 l 0.67061,0.44417 0.62706,0.11323 0.59309,-0.11323 0.67845,-0.33095 0.6976,-0.009 0.53039,0.20902 0.85349,0.0435 0.80126,-0.24385 1.55893,-0.92317 1.3935,-1.14962 h 0.01 l 0.63489,-0.80124 0.94059,-0.78383 v -0.009 l 0.35707,-0.46159 0.95801,-0.71415 0.66189,-0.061 0.39195,-0.20029 0.19255,-0.0958 h 0.01 l 1.21061,-1.28897 0.61834,-0.0871 0.53127,-0.21775 0.39191,0.19161 0.80994,0.026 0.45287,0.2003 2.32536,0.0523 -0.0263,0.39192 -0.21758,-0.11324 -0.28736,0.10451 -0.11323,0.0435 -0.16557,-0.11323 -0.74027,0.061 -0.42676,-0.2787 -1.40218,-0.12193 -0.29625,0.0348 0.0958,0.26126 0.0349,0.0958 h 0.01 l 1.01025,0.10451 0.20902,0.0174 0.27781,0.026 0.55824,0.44417 0.37452,0.0348 0.32225,-0.28739 0.47901,0.37449 0.5661,0.0348 0.75771,-0.18289 1.11389,-0.49642 0.7664,-0.0348 h 0.01 l 0.89618,-1.21058 0.0263,-0.0348 0.10434,-0.13065 0.60093,-0.28739 0.24292,0.0348 0.0434,0.009 0.13924,0.2874 0.01,0.0348 h 0.01 l 0.16458,0.009 0.17413,0.0174 0.01,-0.009 0.53124,-0.13065 0.28736,0.2874 v 0.31353 l -0.40063,1.14961 -0.86221,0.50514 -0.56525,0.58351 -0.62792,0.33095 -0.22646,0.43546 -0.16557,-0.23515 -0.84481,-0.40934 -0.33966,0.53126 0.25247,0.79254 h 0.01 l 0.479,-0.0348 0.0879,1.41089 0.0698,1.96828 0.55738,2.60405 -0.23601,2.30794 -0.01,0.0522 0.35705,1.62862 0.46159,3.0308 -0.26136,0.43547 -0.76728,0.061 -0.89619,0.74028 -0.78381,1.0451 -1.21058,0.60094 -2.47342,1.66259 -0.85349,0.36578 -0.95801,0.78383 -1.32466,1.70701 -1.31509,1.28025 -0.50514,0.74899 -0.29625,0.23516 -0.74898,0.58439 -0.40063,0.12192 -0.64447,-0.40062 -0.15669,0.0174 -1.17571,0.13064 -0.84566,-0.44416 -0.0434,-0.41805 -0.54869,-0.009 -0.26992,-0.009 h -0.01 l 0.13068,0.43546 -0.0165,0.0871 -0.21758,0.89704 -0.51472,0.69674 -1.70699,1.4196 h -0.01 l -0.23503,0.35708 -0.11422,0.93188 -0.0523,0.44417 0.69672,1.75926 1.26284,1.77668 h 0.01 l 0.74902,0.45375 h 0.45286 l 0.35708,-0.22644 0.52341,0.0522 0.60879,0.25257 1.56851,-0.12192 0.62707,0.32225 0.3658,0.40934 0.25247,0.53997 0.0263,0.61835 -0.0197,0.0435 -0.16458,0.53126 0.12179,0.41717 -0.34836,0.12193 -0.57393,0.46159 -0.43545,0.0435 -0.0198,0.67148 0.33094,1.40131 -0.10468,0.65319 0.14813,0.41805 -0.24293,0.0871 -0.0879,0.36579 -1.14876,0.77599 -0.36577,0.39191 -0.78384,0.3475 -0.34836,0.15764 -0.31271,-0.0444 -1.66347,-0.23515 -0.49642,0.37449 0.13924,0.29612 0.20902,-0.0174 1.51542,-0.14806 0.21757,0.52255 0.12212,0.0958 0.0609,0.0436 c -0.17413,0.2787 -0.34055,0.52255 -0.5661,0.76641 -0.53127,0.026 -1.07124,0.17419 -1.6112,0.2003 -0.6715,0.58351 -1.58507,2.4647 -1.34122,3.39572 0.13858,0.51384 0.53038,0.94059 0.67061,1.46401 0.17413,0.64361 0.0435,1.31509 0.49641,1.8899 -0.01,0.39105 -0.0263,1.28025 -0.20046,1.61904 0.01,0.11323 -0.0349,0.22732 -0.0349,0.33095 0.0435,0.71416 -0.98414,2.08237 -0.4607,2.76169 0.58351,0.14806 2.59445,-0.0348 3.01338,0.61836 0.0523,0.1916 -0.0879,1.08865 -0.13068,1.34121 0.11324,0.16462 0.21758,0.45288 0.34836,0.59223 0.15668,0.17419 1.11393,0.80125 1.34994,0.89705 0.23503,0.46071 0.57479,0.40933 0.81778,0.76641 0.78385,0.11323 2.05538,-0.84567 3.37047,0.0348 0.14812,0.0949 0.33094,0.12193 0.41804,0.31268 -0.0783,0.64448 0.72285,0.81083 1.0451,1.18445 0.0872,0.10451 0.15669,0.28739 0.23503,0.40062 0,0.21775 -0.10435,0.33966 -0.13068,0.52256 -0.0688,0.46158 0.19256,0.95017 0.50514,1.24628 0.12278,0.10451 0.14812,0.26126 0.16557,0.41718 0.0958,0.87962 -0.26136,0.80124 -0.60965,1.22799 -0.19158,0.25257 -0.38233,0.5661 -0.57482,0.82738 -0.0523,0.0871 -0.17412,0.34749 -0.19948,0.44417 -0.10467,0.55738 -0.10467,1.21058 -0.183,1.78538 -0.053,0.37537 -0.24392,0.69674 -0.27881,1.04511 0.10435,0.33095 0.34836,0.79253 0.32226,1.14177 -0.29625,0.32137 -0.39191,0.61836 -0.79254,0.8178 -0.22646,-0.026 -0.3919,-0.14806 -0.6349,-0.12192 -0.54955,0.0522 -2.76168,0.47029 -3.07435,0.37449 -0.13924,-0.18288 -0.14813,-0.43546 -0.34052,-0.57481 -0.21758,-0.0435 -0.58352,-0.0348 -0.74813,0.14806 -0.34836,0.53998 0.33094,1.86464 0.3475,2.456 0.0198,0.70545 -0.44418,0.53997 -0.60876,1.01898 -0.11322,0.32225 -0.01,0.30481 -0.0197,0.52255 0,0.25257 -0.19157,0.4703 -0.24391,0.71415 0.12278,0.088 0.24391,0.18289 0.35708,0.27871 l -0.0523,0.19161 c -0.3058,0.24384 -0.69675,0.0348 -1.03638,0.0531 -0.17413,0.009 -0.3475,0.0688 -0.53039,0.0784 -0.74901,0.65319 -0.5661,1.03553 -1.019,1.50582 -0.21758,0.22644 -0.53124,0.3057 -0.76728,0.54868 -0.0948,0.0958 -0.17315,0.24385 -0.30481,0.29612 -0.26136,0.10451 -0.5661,0.0531 -0.82736,0.10451 -0.46073,0.088 -0.82739,0.44504 -1.33164,0.51472 -0.29691,0.0435 -0.5844,-0.0184 -0.87091,0.0253 -0.53128,0.48859 -0.29691,1.4196 -0.59313,2.0127 -0.36577,0.2874 -0.82735,-0.01 -1.17571,-0.17419 -0.26136,-0.12193 -0.47031,-0.0697 -0.75771,-0.0436 -1.49797,0.14806 -1.48928,1.82022 -1.68089,3.02209 -0.0879,0.53997 -0.23601,1.10607 -0.23601,1.66346 0,0.56523 0.20902,1.05381 0.0958,1.63733 -0.13068,0.65319 -0.80126,0.6349 -1.14961,1.06252 -0.21758,0.27871 -0.15669,0.70632 -0.33967,1.01898 L 148.92142,277 h -0.75771 l -0.78295,-0.52342 -1.53369,-0.12193 -0.77512,-0.20029 -0.94928,-0.35621 -1.03641,-0.58352 -1.16703,-0.76728 -2.14244,-1.09736 -0.54,-0.41717 -1.10606,-0.79254 -0.69672,-0.59309 -0.68802,-0.22644 -2.70074,-0.50513 -0.92318,-0.0174 c 0.0602,-0.0184 0.12212,-0.026 0.20803,-0.026 0.23601,0 0.51472,0 0.64447,0 l -0.32225,-0.99285 0.52341,-0.8535 -0.52341,-0.0697 -0.39105,0.72287 -0.45375,-0.0601 -0.0698,-0.66277 -1.36732,-0.98414 -0.4529,-1.05381 -1.36733,-0.6619 -0.26135,-1.31509 h -0.65317 l -0.32225,-0.46159 0.32225,-0.33095 -0.71416,-1.18445 -0.52255,0.46158 -0.71416,0.061 -1.29681,-0.78383 -0.0698,-0.73158 0.26136,-0.65319 h -0.77512 l -0.20046,-0.92404 0.58351,-0.99285 -0.19157,-0.32226 -0.52341,-0.19944 0.3318,-1.18445 0.4529,-0.59223 h 2.0118 l -0.45287,-1.18445 0.32225,-0.40062 -0.45375,-1.31509 1.23671,-0.8535 0.3318,-0.92318 -1.62862,-0.46159 0.39105,-0.59222 c 0,0 0.19256,-0.39192 -0.0688,-0.79254 -0.26202,-0.39191 -1.36736,-1.18445 -1.62862,-1.31509 -0.26202,-0.13065 -1.29767,-0.92405 -1.29767,-0.92405 l 0.51383,-0.6619 0.2709,-0.91446 -0.20046,-0.6619 0.91449,-0.79254 0.58351,0.26126 0.58351,-1.83764 -1.62861,-0.92318 -0.19158,0.72287 -1.75926,0.98414 -0.32225,0.66189 -2.02052,-0.46158 -0.6532,1.25412 0.52344,0.33095 -0.91535,1.37606 0.39191,0.73157 -1.10607,0.19161 -0.26201,-0.39105 -2.47339,0.12976 c 0,0 -0.38236,1.05381 -0.38236,1.5154 0,0.46159 -0.20046,1.38477 -0.20046,1.38477 0,0 -2.86533,-0.19945 -3.44884,-0.33096 -0.59224,-0.13064 -0.78296,0.4616 -0.84481,0.72287 -0.0698,0.26126 -1.10692,2.10763 -1.10692,2.10763 l -1.49797,2.1773 c 0,0 -0.78295,0.33095 -0.91449,0.78383 -0.13067,0.46071 -0.78381,0.73157 -1.49797,0.0697 -0.71415,-0.66277 -1.10695,-1.18445 -1.10695,-1.18445 l 0.26136,-0.53126 -1.29682,-0.72287 v -1.31509 l -1.0451,1.57724 0.39194,0.40063 -0.20046,0.72286 h -0.38233 l -0.46159,1.38476 0.12969,0.65319 -0.38232,1.06253 -0.45376,-0.0697 -1.01897,-0.14806 -0.19157,-0.026 h -0.0349 l -0.51383,-0.0784 -1.141781,-0.33095 -0.400629,-0.33965 -0.914456,-0.0958 -0.487726,-0.64448 -0.261358,-0.3475 h -0.0099 l -1.984807,-1.21929 -0.278803,-0.061 -0.418042,-0.10451 -0.495526,-0.53039 -0.157671,-0.061 -0.879631,-0.33966 -0.958038,-0.65319 -0.295921,-0.74899 -0.113233,-0.29612 -0.07933,-0.18288 -0.06024,-0.15675 -0.583513,-0.96673 0.164583,-0.98414 -0.0609,-0.29612 -0.01646,-0.0958 0.287362,-0.0348 -0.02633,0.67148 0.513829,1.68088 h 0.0099 l 0.235025,0.0871 0.374492,0.13933 0.130679,0.3057 h 0.0099 l 0.400628,0.0601 v -0.009 l 0.053,-0.1742 -0.783844,-0.82737 -0.513828,-1.14091 -0.130679,-1.43702 0.07933,-0.27781 h -0.0099 v -0.01 l -0.460734,-1.17574 -0.01975,-0.0784 -1.245433,-2.2731 h -0.0099 l -1.071239,-0.73158 -0.03489,-0.026 -0.949315,-0.3745 -0.792533,-0.13933 -0.653198,-0.30481 -0.870908,-0.90576 -0.57479,-0.83609 -0.04345,-0.43546 -0.0609,-0.59309 -0.530418,-1.24542 -0.313696,-0.35708 -0.07834,-0.69673 -1.088652,-2.50825 0.06978,-0.26126 -1.053825,-1.14178 -0.548655,-0.36579 -0.722882,-0.20902 -0.618338,-0.97456 -0.662777,-0.61835 h -0.0099 l -1.653862,-1.0364 -2.281814,-0.88834 -0.313695,-0.47029 h -0.0099 l -0.905767,-0.34837 -0.696746,-0.0523 -1.864628,-0.14892 -1.175749,0.22732 -0.226466,-0.0184 -0.609649,-0.0436 0.03489,-0.13064 0.0869,-0.2874 v -0.009 l -0.183016,0.0184 -0.322254,-0.18289 -0.0099,0.009 -0.923179,0.60006 h -0.0099 l -0.444177,-0.12192 -0.740262,0.0184 -1.288982,0.0254 -0.07834,-0.0436 -0.400628,-0.25257 h -0.01646 -0.01975 l -0.592236,-0.23516 -0.644475,-0.25257 -1.271536,-0.11323 -1.646062,0.20817 -0.227454,0.3832 -0.55741,0.39191 -0.487692,-0.12281 -0.35708,-0.29612 -0.0609,-0.19944 -0.862218,-0.57481 -0.0948,-0.37449 -0.410207,-0.20902 -0.04345,-0.026 -0.05234,-0.30481 -1.201885,-0.93188 -0.262016,-0.58352 -0.208033,0.0174 h -0.0099 l -0.836082,-1.63733 0.09579,-0.24299 -0.165571,-0.20903 0.09579,-0.30569 -0.148125,-0.23516 v -0.009 l -0.165571,-0.27084 -0.277816,-0.009 -0.357079,-0.47901 0.130679,-1.24629 0.312707,-0.43546 -0.25247,-0.1733 -0.696746,0.14805 -0.269917,-0.48858 -0.0609,-0.11323 -0.236012,0.009 -0.826504,-1.91515 -0.053,-0.54955 h -0.0099 l -0.496415,-0.48772 -0.07834,-0.34837 0.191575,-0.50426 0.644507,-0.4703 1.236678,-0.3832 h 0.01975 l 0.02633,-0.009 0.313696,-0.0958 0.757707,0.0784 1.924734,0.81083 0.705436,0.42588 0.767287,0.12281 1.14089,-0.51384 0.522551,-0.78383 0.148125,-0.4703 0.04444,-0.15678 0.03489,-0.72287 -0.357079,-0.73157 -1.698301,-1.92473 -0.77512,-2.96113 -0.357047,-0.78383 h -0.0099 l -0.574823,-0.3475 -0.870908,-0.088 -0.880487,0.18288 -1.000698,0.74899 -0.696746,0.26126 -0.01975,-0.009 -0.199475,-0.44416 -0.0099,-0.0436 -0.530385,-0.35708 -0.183017,-0.33095 h -0.0099 l -0.775088,-0.69761 -0.548687,-2.19472 -0.278804,-0.0531 -0.312707,-0.25169 -0.148125,-0.36665 0.330943,-0.77512 0.08723,-0.80996 0.35708,-1.01027 0.417152,-0.70544 0.679334,-0.48772 h 0.0099 l 0.174129,-1.40218 -0.08723,-0.16547 -0.287363,-0.55739 0.252471,-1.21929 0.339634,-0.23516 0.287362,-0.2003 1.760118,0.11324 0.757707,-0.0784 0.0099,-0.009 0.817814,-0.33965 0.731572,-0.53127 0.0609,-0.54868 0.270903,-0.29612 0.374493,-0.11323 0.77512,-0.94059 0.200463,-1.43702 0.121791,-0.27871 0.122779,-0.26998 -0.20902,-0.13065 h -0.0099 l -0.209021,-0.13064 -1.612059,1.55024 -0.984141,0.7577 -0.426764,0.32225 v 0.009 l -0.417152,0.47901 -0.130679,0.14806 -0.374493,0.41804 -0.696746,0.44417 -0.278804,0.10451 -0.191574,0.0697 -0.488615,-0.0522 -0.01646,-0.11323 -0.04345,-0.26998 -0.165571,-0.62707 -0.322253,-0.54867 -0.06978,-0.13065 -0.522551,-0.57481 -0.731572,0.21775 -0.706325,0.22643 -0.696713,0.55739 -0.949316,-0.0436 -0.278804,-0.19161 -0.183016,-0.55739 h -0.0099 l -0.20902,-0.13065 -0.782988,0.16548 -0.453723,-0.41805 -0.304808,0.0348 -0.818669,0.48772 -0.740262,0.0784 -1.001554,0.67061 h -0.0099 l -0.07834,1.16703 -0.278804,0.11324 -0.888321,-0.14806 -0.897043,-0.40934 -0.931903,-0.42675 -0.425875,-0.48771 -0.313696,-0.34837 -0.270904,-0.79254 -0.286703,-0.8535 -0.296908,-0.46159 h -0.0099 l -0.382327,-0.17419 -0.227454,0.24384 0.07933,0.2874 h 0.0099 l 0.242925,0.20902 0.600959,0.94059 0.0099,0.0175 0.227454,0.36579 -0.401517,0.10451 -0.425876,-0.67932 -0.435454,-0.71416 -0.02633,-0.0522 -0.304808,-0.73157 -0.03489,-0.36579 0.138579,-0.32222 -0.113234,-0.13934 z"
         style="fill:#001e49;fill-opacity:1;stroke:none;stroke-width:0.74063021;stroke-miterlimit:3.86369991" />
      <polygon
         points="439.684,321.045 439.365,320.897 439.328,320.427 439.615,319.991 440.039,319.954 440.161,320.119 "
         style="fill:#001e49;fill-opacity:1;stroke:none;stroke-width:0.85039997;stroke-miterlimit:3.86369991"
         id="polygon38"
         transform="matrix(0.870919,0,0,0.87092059,-338.65834,-73.938225)" />
      <polygon
         points="438.992,323.534 438.581,323.948 438.597,324.252 438.888,324.54 438.857,324.75 438.167,324.5 437.908,323.907 438.167,323.586 "
         style="fill:#001e49;fill-opacity:1;stroke:none;stroke-width:0.85039997;stroke-miterlimit:3.86369991"
         id="polygon40"
         transform="matrix(0.870919,0,0,0.87092059,-338.65834,-73.938225)" />
      <polygon
         points="437.039,330.156 437.531,329.473 438.568,328.937 438.859,329.156 438.37,329.68 438.206,330.239 438.471,331.44 438.994,331.455 439.115,331.623 438.932,331.876 438.406,332.028 438.85,333.044 438.588,333.483 438.018,333.446 437.627,333.156 436.939,331.942 436.836,331.381 436.809,331.236 436.86,330.854 436.935,330.302 "
         style="fill:#001e49;fill-opacity:1;stroke:none;stroke-width:0.85039997;stroke-miterlimit:3.86369991"
         id="polygon42"
         transform="matrix(0.870919,0,0,0.87092059,-338.65834,-73.938225)" />
      <polygon
         points="430.429,267.443 430.344,267.437 430.205,267.425 430.203,267.425 430.159,267.423 429.171,267.343 428.387,267.28 427.927,267.479 424.899,267.365 423.975,266.947 423.51,266.329 421.849,266.058 420.309,265.294 419.877,265.081 419.732,263.814 420.086,262.698 420.822,261.518 421.702,260.67 423.125,260.445 424.529,260.006 425.308,260.211 425.689,260.126 426.19,260.322 427.428,260.422 427.861,260.242 428.178,259.735 429.04,259.661 429.196,259.701 430.825,260.123 431.841,260.943 432.004,261.439 431.695,262.577 432.608,263.395 432.501,263.628 432.305,263.768 431.677,264.219 431.217,265.377 431.301,265.941 431.12,266.451 430.885,267.115 430.838,267.243 "
         style="fill:#001e49;fill-opacity:1;stroke:none;stroke-width:0.85039997;stroke-miterlimit:3.86369991"
         id="polygon72"
         transform="matrix(0.870919,0,0,0.87092059,-338.65834,-73.938225)" />
      <polygon
         points="441.845,271.794 441.371,272.508 440.885,272.8 440.459,272.671 439.991,272.261 440.023,272.005 440.314,271.567 440.892,271.558 441.206,271.262 441.56,271.225 "
         style="fill:#001e49;fill-opacity:1;stroke:none;stroke-width:0.85039997;stroke-miterlimit:3.86369991"
         id="polygon74"
         transform="matrix(0.870919,0,0,0.87092059,-338.65834,-73.938225)" />
      <polygon
         points="413.893,267.021 415.725,265.446 416.628,264.671 417.143,264.227 417.34,264.421 416.097,265.754 415.93,266.383 415.946,266.489 416.015,267.038 416.434,267.599 416.604,267.824 417.344,269.665 417.525,270.604 418.421,271.116 418.642,271.401 418.643,271.598 418.649,272.102 418.816,272.481 419.265,272.726 419.922,272.693 420.02,272.834 419.889,272.973 418.196,273.125 418.113,273.259 418.108,273.264 418.067,273.333 418.289,273.523 419.219,273.569 419.139,273.823 417.975,273.939 417.938,274.477 416.928,274.526 416.402,274.329 415.495,273.011 414.357,271.356 413.683,270.379 413.606,270.265 413.401,269.961 413.345,269.769 413.142,269.066 "
         style="fill:#001e49;fill-opacity:1;stroke:none;stroke-width:0.85039997;stroke-miterlimit:3.86369991"
         id="polygon76"
         transform="matrix(0.870919,0,0,0.87092059,-338.65834,-73.938225)" />
      <polygon
         points="422.486,278.249 422.798,277.809 423.43,277.707 423.504,277.849 423.44,278.34 423.971,279.22 423.569,279.328 423.577,279.983 423.047,279.948 422.653,279.587 422.418,278.903 "
         style="fill:#001e49;fill-opacity:1;stroke:none;stroke-width:0.85039997;stroke-miterlimit:3.86369991"
         id="polygon78"
         transform="matrix(0.870919,0,0,0.87092059,-338.65834,-73.938225)" />
      <polygon
         points="430.268,277.846 430.788,278.693 431.157,278.981 431.298,279.382 431.162,279.778 430.701,280.049 429.342,280.039 428.734,279.205 427.561,278.758 426.992,278.371 426.848,278.063 426.907,277.713 427.39,277.585 428.136,277.929 428.793,277.898 429.483,277.691 429.733,277.614 430.232,277.789 "
         style="fill:#001e49;fill-opacity:1;stroke:none;stroke-width:0.85039997;stroke-miterlimit:3.86369991"
         id="polygon80"
         transform="matrix(0.870919,0,0,0.87092059,-338.65834,-73.938225)" />
      <polygon
         points="423.388,283.515 423.174,281.966 423.315,281.382 423.549,281.131 424.126,281.188 424.455,282.086 425.029,282.287 425.165,282.873 424.871,284.577 425.288,285.032 425.345,285.736 425.686,286.189 425.254,286.343 424.254,286.155 423.752,285.067 "
         style="fill:#001e49;fill-opacity:1;stroke:none;stroke-width:0.85039997;stroke-miterlimit:3.86369991"
         id="polygon82"
         transform="matrix(0.870919,0,0,0.87092059,-338.65834,-73.938225)" />
      <polygon
         points="438.636,280.003 439.717,280.077 439.839,280.291 439.581,281.339 439.784,282.165 439.435,282.928 438.79,283.475 438.29,285.15 437.551,286.394 435.5,286.906 434.37,286.856 433.8,286.537 433.32,285.66 432.311,284.862 432.04,283.685 432.053,283.148 432.323,282.498 432.732,282.321 432.895,282.31 434.546,282.222 435.314,281.748 435.557,281.122 436.338,281.119 436.594,280.937 437.327,280.886 437.841,280.524 438.374,280.373 "
         style="fill:#001e49;fill-opacity:1;stroke:none;stroke-width:0.85039997;stroke-miterlimit:3.86369991"
         id="polygon84"
         transform="matrix(0.870919,0,0,0.87092059,-338.65834,-73.938225)" />
      <polygon
         points="441.394,289.159 442.273,289.205 440.953,289.713 440.704,289.564 440.661,289.327 "
         style="fill:#001e49;fill-opacity:1;stroke:none;stroke-width:0.85039997;stroke-miterlimit:3.86369991"
         id="polygon86"
         transform="matrix(0.870919,0,0,0.87092059,-338.65834,-73.938225)" />
      <polygon
         points="429.883,289.185 430.675,289.627 429.985,290.148 429.734,290.051 429.378,289.268 "
         style="fill:#001e49;fill-opacity:1;stroke:none;stroke-width:0.85039997;stroke-miterlimit:3.86369991"
         id="polygon88"
         transform="matrix(0.870919,0,0,0.87092059,-338.65834,-73.938225)" />
      <polygon
         points="422.288,291.479 422.517,290.265 422.725,290.034 423.755,290.034 424.72,289.678 424.812,289.986 424.646,290.544 424.864,290.878 425.688,291.154 425.773,291.74 426.386,292.386 426.525,292.74 426.341,293.042 425.857,293.358 425.896,293.828 425.688,294.127 424.948,294.09 424.885,294.087 424.165,293.742 423.803,293.15 422.377,291.923 "
         style="fill:#001e49;fill-opacity:1;stroke:none;stroke-width:0.85039997;stroke-miterlimit:3.86369991"
         id="polygon90"
         transform="matrix(0.870919,0,0,0.87092059,-338.65834,-73.938225)" />
      <polygon
         points="606.986,296.326 605.018,296.046 603,295.369 601.362,295.088 599.49,295.659 599.379,295.417 599.516,295.238 599.953,295.249 600.245,295.258 600.434,294.705 599.979,294.703 599.197,294.352 598.757,294.563 598.181,294.529 597.766,295.115 597.846,295.426 598.492,295.824 598.841,295.602 598.397,296.278 597.856,296.434 594.627,296.23 594.361,295.967 594.322,295.93 594.081,295.833 593.266,295.497 593.07,295.041 593.244,294.674 593.024,294.193 593.226,293.822 593.449,293.418 593.41,292.877 592.737,292.886 592.383,292.558 593.216,292.35 593.048,291.825 592.744,291.88 592.512,291.561 592.073,291.538 591.874,291.803 591.718,291.399 591.305,291.165 590.671,291.27 590.301,291.93 589.99,291.68 589.249,291.848 589.032,292.096 588.257,291.37 587.998,291.39 587.918,291.489 588.53,292.068 588.58,292.544 589.147,292.666 589.681,293.352 589.233,293.304 587.611,292.299 587.38,291.983 587.538,289.445 587.613,288.265 587.877,287.271 588.806,285.329 589.006,285.292 589.257,284.93 589.342,284.372 589.625,283.874 591.159,282.714 593.686,283.064 596.394,283.629 597.986,283.962 598.883,284.506 599.323,285.093 600.968,285.751 601.422,285.753 602.445,286.656 603.148,289.02 604.167,289.946 604.334,290.472 604.62,290.675 604.814,291.578 605.143,292.159 605.31,292.452 605.831,292.906 606.149,293.414 606.263,294.361 606.52,294.634 606.635,295.181 607.012,295.576 "
         style="fill:#001e49;fill-opacity:1;stroke:none;stroke-width:0.85039997;stroke-miterlimit:3.86369991"
         id="polygon106"
         transform="matrix(0.870919,0,0,0.87092059,-338.65834,-73.938225)" />
      <polygon
         points="474.776,351.161 474.349,351.313 472.906,350.685 472.984,350.546 474.635,350.899 "
         style="fill:#001e49;fill-opacity:1;stroke:none;stroke-width:0.85039997;stroke-miterlimit:3.86369991"
         id="polygon138"
         transform="matrix(0.870919,0,0,0.87092059,-338.65834,-73.938225)" />
      <polygon
         points="491.094,367.823 492.183,368.988 492.459,369.512 492.529,371.486 492.302,371.572 490.937,368.029 "
         style="fill:#001e49;fill-opacity:1;stroke:none;stroke-width:0.85039997;stroke-miterlimit:3.86369991"
         id="polygon140"
         transform="matrix(0.870919,0,0,0.87092059,-338.65834,-73.938225)" />
      <polygon
         points="497.363,379.987 496.465,379.494 495.552,378.512 495.609,378.233 496.575,378.714 496.852,379.014 497.52,379.734 "
         style="fill:#001e49;fill-opacity:1;stroke:none;stroke-width:0.85039997;stroke-miterlimit:3.86369991"
         id="polygon142"
         transform="matrix(0.870919,0,0,0.87092059,-338.65834,-73.938225)" />
      <polygon
         points="503.206,382.283 505.887,382.794 505.911,382.799 507.886,382.688 508.71,382.978 508.941,383.317 508.74,383.425 508.209,383.169 507.146,383.291 503.212,382.622 501.651,382.269 501.707,381.941 "
         style="fill:#001e49;fill-opacity:1;stroke:none;stroke-width:0.85039997;stroke-miterlimit:3.86369991"
         id="polygon144"
         transform="matrix(0.870919,0,0,0.87092059,-338.65834,-73.938225)" />
    </g>
    <g
       transform="matrix(0.41176482,0,0,0.41176751,-2.4921588,-42.410848)"
       id="g4745">
      <g
         aria-label="THE LÆND"
         style="font-style:normal;font-weight:normal;font-size:10.58333302px;line-height:1.25;font-family:sans-serif;letter-spacing:0px;word-spacing:0px;fill:#ffffff;fill-opacity:1;stroke:none;stroke-width:0.26458332"
         id="text12">
        <path
           inkscape:connector-curvature="0"
           d="m 77.489185,200.41924 v 6.4389 h -3.0226 v -6.4389 h -2.2098 v -2.5527 h 7.4422 v 2.5527 z"
           style="font-style:normal;font-variant:normal;font-weight:800;font-stretch:normal;font-size:12.69999981px;font-family:'Avenir Next LT Pro';-inkscape-font-specification:'Avenir Next LT Pro Ultra-Bold';fill:#ffffff;stroke-width:0.26458332"
           id="path35" />
        <path
           inkscape:connector-curvature="0"
           d="m 86.107524,206.85814 v -3.4163 h -2.4638 v 3.4163 h -3.0226 v -8.9916 h 3.0099 v 3.048 h 2.4638 v -3.048 h 3.0353 v 8.9916 z"
           style="font-style:normal;font-variant:normal;font-weight:800;font-stretch:normal;font-size:12.69999981px;font-family:'Avenir Next LT Pro';-inkscape-font-specification:'Avenir Next LT Pro Ultra-Bold';fill:#ffffff;stroke-width:0.26458332"
           id="path37" />
        <path
           inkscape:connector-curvature="0"
           d="m 90.81585,206.85814 v -8.9916 h 6.1849 v 2.5146 h -3.3401 v 0.7747 h 3.1369 v 2.3495 h -3.1369 v 0.8382 h 3.556 v 2.5146 z"
           style="font-style:normal;font-variant:normal;font-weight:800;font-stretch:normal;font-size:12.69999981px;font-family:'Avenir Next LT Pro';-inkscape-font-specification:'Avenir Next LT Pro Ultra-Bold';fill:#ffffff;stroke-width:0.26458332"
           id="path40" />
        <path
           inkscape:connector-curvature="0"
           d="m 101.6555,206.85814 v -8.9916 h 3.048 v 6.4008 h 2.9845 v 2.5908 z"
           style="font-style:normal;font-variant:normal;font-weight:800;font-stretch:normal;font-size:12.69999981px;font-family:'Avenir Next LT Pro';-inkscape-font-specification:'Avenir Next LT Pro Ultra-Bold';fill:#ffffff;stroke-width:0.26458332"
           id="path42" />
        <path
           inkscape:connector-curvature="0"
           d="m 114.03581,206.85814 v -1.3208 h -2.2479 l -0.6223,1.3208 h -3.3782 l 4.4958,-8.9916 h 7.747 v 2.5146 h -3.2131 v 0.7747 h 3.0099 v 2.3495 h -3.0099 v 0.8382 h 3.429 v 2.5146 z m -0.0508,-6.477 -1.2954,2.8448 h 1.3462 v -2.8448 z"
           style="font-style:normal;font-variant:normal;font-weight:800;font-stretch:normal;font-size:12.69999981px;font-family:'Avenir Next LT Pro';-inkscape-font-specification:'Avenir Next LT Pro Ultra-Bold';fill:#ffffff;stroke-width:0.26458332"
           id="path44" />
        <path
           inkscape:connector-curvature="0"
           d="m 121.49925,206.85814 v -8.9916 h 3.0099 l 2.5654,4.5593 h 0.0508 l -0.127,-4.5593 h 2.8702 v 8.9916 h -3.0861 l -2.4892,-4.2926 h -0.0508 l 0.127,4.2926 z"
           style="font-style:normal;font-variant:normal;font-weight:800;font-stretch:normal;font-size:12.69999981px;font-family:'Avenir Next LT Pro';-inkscape-font-specification:'Avenir Next LT Pro Ultra-Bold';fill:#ffffff;stroke-width:0.26458332"
           id="path46" />
        <path
           inkscape:connector-curvature="0"
           d="m 135.15195,206.85814 h -3.6068 v -8.9916 h 3.3528 q 0.889,0 1.651,0.127 0.762,0.127 1.4605,0.4572 0.7112,0.3175 1.1938,0.8128 0.4953,0.4826 0.7874,1.27 0.2921,0.7747 0.2921,1.778 0,1.143 -0.4191,2.0447 -0.4191,0.889 -1.1557,1.4224 -0.7239,0.5334 -1.6256,0.8128 -0.9017,0.2667 -1.9304,0.2667 z m -0.0254,-6.4262 h -0.6731 v 3.8354 h 0.5588 q 2.2098,0 2.2098,-1.9812 0,-0.8636 -0.5715,-1.3589 -0.5588,-0.4953 -1.524,-0.4953 z"
           style="font-style:normal;font-variant:normal;font-weight:800;font-stretch:normal;font-size:12.69999981px;font-family:'Avenir Next LT Pro';-inkscape-font-specification:'Avenir Next LT Pro Ultra-Bold';fill:#ffffff;stroke-width:0.26458332"
           id="path48" />
      </g>
      <g
         aria-label="der-echte-norden.info"
         style="font-style:normal;font-weight:normal;font-size:10.58333302px;line-height:1.25;font-family:sans-serif;letter-spacing:0px;word-spacing:0px;fill:#ffffff;fill-opacity:1;stroke:none;stroke-width:0.26458332"
         id="text16">
        <path
           inkscape:connector-curvature="0"
           d="m 74.372543,209.21315 v 5.334 H 73.56821 v -0.508 H 73.5541 q -0.169333,0.28928 -0.486833,0.45156 -0.3175,0.15522 -0.677334,0.15522 -0.754944,0 -1.213555,-0.52211 -0.451556,-0.52211 -0.451556,-1.28411 0,-0.762 0.458611,-1.27 0.465667,-0.508 1.185334,-0.508 0.712611,0 1.135944,0.52916 h 0.02117 v -2.37772 z m -2.532944,2.86456 q -0.254,0.32455 -0.254,0.762 0,0.43744 0.254,0.76905 0.261056,0.33161 0.719667,0.33161 0.4445,0 0.719666,-0.33161 0.275167,-0.33161 0.275167,-0.75494 0,-0.42334 -0.275167,-0.762 -0.275166,-0.33867 -0.719666,-0.33867 -0.458611,0 -0.719667,0.32456 z"
           style="font-style:normal;font-variant:normal;font-weight:normal;font-stretch:normal;font-size:7.05555534px;font-family:'Avenir Next LT Pro';-inkscape-font-specification:'Avenir Next LT Pro';fill:#ffffff;stroke-width:0.26458332"
           id="path51" />
        <path
           inkscape:connector-curvature="0"
           d="m 76.057167,212.51515 h 1.735667 q 0,-0.35278 -0.204611,-0.58561 -0.204611,-0.23283 -0.592667,-0.23283 -0.373944,0 -0.642055,0.23283 -0.268111,0.23283 -0.296334,0.58561 z m 2.582334,0.381 q 0,0.14817 -0.0071,0.22578 h -2.575278 q 0.02822,0.35278 0.310445,0.59266 0.282222,0.23989 0.656167,0.23989 0.585611,0 0.896055,-0.43744 l 0.564444,0.45155 q -0.500944,0.67734 -1.453444,0.67734 -0.797278,0 -1.312333,-0.47978 -0.508,-0.47978 -0.508,-1.29117 0,-0.81139 0.508,-1.31233 0.508,-0.50094 1.284111,-0.50094 0.733778,0 1.185333,0.47272 0.451556,0.47272 0.451556,1.36172 z"
           style="font-style:normal;font-variant:normal;font-weight:normal;font-stretch:normal;font-size:7.05555534px;font-family:'Avenir Next LT Pro';-inkscape-font-specification:'Avenir Next LT Pro';fill:#ffffff;stroke-width:0.26458332"
           id="path53" />
        <path
           inkscape:connector-curvature="0"
           d="m 79.459488,214.54715 v -3.38667 h 0.811389 v 0.56445 h 0.01411 q 0.141112,-0.30339 0.402167,-0.47978 0.261056,-0.18344 0.585611,-0.18344 0.119945,0 0.204611,0.0212 v 0.77611 q -0.141111,-0.0353 -0.261055,-0.0353 -0.218722,0 -0.388056,0.0705 -0.169333,0.0706 -0.268111,0.17639 -0.09172,0.10583 -0.155222,0.23989 -0.05644,0.127 -0.07761,0.23283 -0.02117,0.10584 -0.02117,0.1905 v 1.81328 z"
           style="font-style:normal;font-variant:normal;font-weight:normal;font-stretch:normal;font-size:7.05555534px;font-family:'Avenir Next LT Pro';-inkscape-font-specification:'Avenir Next LT Pro';fill:#ffffff;stroke-width:0.26458332"
           id="path55" />
        <path
           inkscape:connector-curvature="0"
           d="m 83.490194,212.45165 v 0.71967 h -1.693333 v -0.71967 z"
           style="font-style:normal;font-variant:normal;font-weight:normal;font-stretch:normal;font-size:7.05555534px;font-family:'Avenir Next LT Pro';-inkscape-font-specification:'Avenir Next LT Pro';fill:#ffffff;stroke-width:0.26458332"
           id="path57" />
        <path
           inkscape:connector-curvature="0"
           d="M 84.931733,212.51515 H 86.6674 q 0,-0.35278 -0.204611,-0.58561 -0.204612,-0.23283 -0.592667,-0.23283 -0.373945,0 -0.642056,0.23283 -0.268111,0.23283 -0.296333,0.58561 z m 2.582333,0.381 q 0,0.14817 -0.0071,0.22578 h -2.575278 q 0.02822,0.35278 0.310444,0.59266 0.282223,0.23989 0.656167,0.23989 0.585611,0 0.896056,-0.43744 l 0.564444,0.45155 q -0.500944,0.67734 -1.453444,0.67734 -0.797278,0 -1.312334,-0.47978 -0.508,-0.47978 -0.508,-1.29117 0,-0.81139 0.508,-1.31233 0.508,-0.50094 1.284111,-0.50094 0.733778,0 1.185334,0.47272 0.451555,0.47272 0.451555,1.36172 z"
           style="font-style:normal;font-variant:normal;font-weight:normal;font-stretch:normal;font-size:7.05555534px;font-family:'Avenir Next LT Pro';-inkscape-font-specification:'Avenir Next LT Pro';fill:#ffffff;stroke-width:0.26458332"
           id="path59" />
        <path
           inkscape:connector-curvature="0"
           d="m 91.226831,211.59087 -0.578555,0.508 q -0.09878,-0.14111 -0.296334,-0.23283 -0.197555,-0.0988 -0.402166,-0.0988 -0.437445,0 -0.684389,0.33161 -0.246945,0.32456 -0.246945,0.75495 0,0.43744 0.254,0.762 0.254,0.32455 0.705556,0.32455 0.465667,0 0.712611,-0.30339 l 0.529167,0.53623 q -0.437445,0.47272 -1.248834,0.47272 -0.776111,0 -1.305277,-0.48684 -0.529167,-0.48683 -0.529167,-1.30527 0,-0.80434 0.522111,-1.29823 0.522111,-0.49388 1.291167,-0.49388 0.373944,0 0.726722,0.14111 0.352778,0.14111 0.550333,0.38805 z"
           style="font-style:normal;font-variant:normal;font-weight:normal;font-stretch:normal;font-size:7.05555534px;font-family:'Avenir Next LT Pro';-inkscape-font-specification:'Avenir Next LT Pro';fill:#ffffff;stroke-width:0.26458332"
           id="path61" />
        <path
           inkscape:connector-curvature="0"
           d="m 93.662982,211.06171 q 0.620889,0 0.931333,0.40216 0.3175,0.39511 0.3175,0.96661 v 2.11667 h -0.846666 v -1.86267 q 0,-0.89605 -0.627945,-0.89605 -0.381,0 -0.592666,0.27516 -0.204612,0.26812 -0.204612,0.635 v 1.84856 H 91.79326 v -5.334 h 0.846666 v 2.42006 h 0.01411 q 0.112888,-0.23284 0.381,-0.40217 0.275166,-0.16933 0.627944,-0.16933 z"
           style="font-style:normal;font-variant:normal;font-weight:normal;font-stretch:normal;font-size:7.05555534px;font-family:'Avenir Next LT Pro';-inkscape-font-specification:'Avenir Next LT Pro';fill:#ffffff;stroke-width:0.26458332"
           id="path63" />
        <path
           inkscape:connector-curvature="0"
           d="M 96.005317,211.83782 H 95.41265 v -0.67734 h 0.592667 v -0.98072 h 0.832555 v 0.98072 h 0.846667 v 0.67734 h -0.846667 v 1.57339 q 0,0.254 0.09172,0.38805 0.09172,0.13406 0.352778,0.13406 0.218722,0 0.359833,-0.0706 l 0.02822,0.66322 q -0.239889,0.0917 -0.564445,0.0917 -0.620889,0 -0.860777,-0.3175 -0.239889,-0.32456 -0.239889,-0.88195 z"
           style="font-style:normal;font-variant:normal;font-weight:normal;font-stretch:normal;font-size:7.05555534px;font-family:'Avenir Next LT Pro';-inkscape-font-specification:'Avenir Next LT Pro';fill:#ffffff;stroke-width:0.26458332"
           id="path65" />
        <path
           inkscape:connector-curvature="0"
           d="m 98.946381,212.51515 h 1.735669 q 0,-0.35278 -0.20461,-0.58561 -0.20461,-0.23283 -0.59267,-0.23283 -0.373944,0 -0.642055,0.23283 -0.268111,0.23283 -0.296334,0.58561 z m 2.582329,0.381 q 0,0.14817 -0.007,0.22578 h -2.575279 q 0.02822,0.35278 0.310445,0.59266 0.282222,0.23989 0.656167,0.23989 0.585607,0 0.896057,-0.43744 l 0.56444,0.45155 q -0.50094,0.67734 -1.453442,0.67734 -0.797278,0 -1.312333,-0.47978 -0.508,-0.47978 -0.508,-1.29117 0,-0.81139 0.508,-1.31233 0.508,-0.50094 1.284111,-0.50094 0.733774,0 1.185334,0.47272 0.45155,0.47272 0.45155,1.36172 z"
           style="font-style:normal;font-variant:normal;font-weight:normal;font-stretch:normal;font-size:7.05555534px;font-family:'Avenir Next LT Pro';-inkscape-font-specification:'Avenir Next LT Pro';fill:#ffffff;stroke-width:0.26458332"
           id="path67" />
        <path
           inkscape:connector-curvature="0"
           d="m 103.81626,212.45165 v 0.71967 h -1.69334 v -0.71967 z"
           style="font-style:normal;font-variant:normal;font-weight:normal;font-stretch:normal;font-size:7.05555534px;font-family:'Avenir Next LT Pro';-inkscape-font-specification:'Avenir Next LT Pro';fill:#ffffff;stroke-width:0.26458332"
           id="path69" />
        <path
           inkscape:connector-curvature="0"
           d="m 104.60869,214.54715 v -3.38667 h 0.80433 v 0.54328 h 0.0141 q 0.11994,-0.26811 0.40217,-0.45155 0.28927,-0.1905 0.64911,-0.1905 0.62089,0 0.93133,0.40216 0.3175,0.39511 0.3175,0.96661 v 2.11667 h -0.84667 v -1.87678 q 0,-0.90311 -0.635,-0.90311 -0.381,0 -0.58561,0.27517 -0.20461,0.26811 -0.20461,0.64205 v 1.86267 z"
           style="font-style:normal;font-variant:normal;font-weight:normal;font-stretch:normal;font-size:7.05555534px;font-family:'Avenir Next LT Pro';-inkscape-font-specification:'Avenir Next LT Pro';fill:#ffffff;stroke-width:0.26458332"
           id="path71" />
        <path
           inkscape:connector-curvature="0"
           d="m 108.51768,212.83971 q 0,-0.78317 0.52917,-1.27706 0.52916,-0.50094 1.31233,-0.50094 0.78317,0 1.31233,0.50094 0.52917,0.49389 0.52917,1.27706 0,0.79022 -0.53622,1.29822 -0.52917,0.508 -1.30528,0.508 -0.77611,0 -1.31233,-0.508 -0.52917,-0.508 -0.52917,-1.29822 z m 1.11478,-0.762 q -0.254,0.32455 -0.254,0.762 0,0.43744 0.254,0.76905 0.254,0.33161 0.72672,0.33161 0.47272,0 0.72672,-0.33161 0.254,-0.33161 0.254,-0.76905 0,-0.43745 -0.254,-0.762 -0.254,-0.32456 -0.72672,-0.32456 -0.47272,0 -0.72672,0.32456 z"
           style="font-style:normal;font-variant:normal;font-weight:normal;font-stretch:normal;font-size:7.05555534px;font-family:'Avenir Next LT Pro';-inkscape-font-specification:'Avenir Next LT Pro';fill:#ffffff;stroke-width:0.26458332"
           id="path73" />
        <path
           inkscape:connector-curvature="0"
           d="m 113.01472,214.54715 v -3.38667 h 0.81139 v 0.56445 h 0.0141 q 0.14111,-0.30339 0.40216,-0.47978 0.26106,-0.18344 0.58562,-0.18344 0.11994,0 0.20461,0.0212 v 0.77611 q -0.14111,-0.0353 -0.26106,-0.0353 -0.21872,0 -0.38805,0.0705 -0.16934,0.0706 -0.26812,0.17639 -0.0917,0.10583 -0.15522,0.23989 -0.0564,0.127 -0.0776,0.23283 -0.0212,0.10584 -0.0212,0.1905 v 1.81328 z"
           style="font-style:normal;font-variant:normal;font-weight:normal;font-stretch:normal;font-size:7.05555534px;font-family:'Avenir Next LT Pro';-inkscape-font-specification:'Avenir Next LT Pro';fill:#ffffff;stroke-width:0.26458332"
           id="path75" />
        <path
           inkscape:connector-curvature="0"
           d="m 119.02098,209.21315 v 5.334 h -0.80433 v -0.508 h -0.0141 q -0.16934,0.28928 -0.48684,0.45156 -0.3175,0.15522 -0.67733,0.15522 -0.75494,0 -1.21356,-0.52211 -0.45155,-0.52211 -0.45155,-1.28411 0,-0.762 0.45861,-1.27 0.46567,-0.508 1.18533,-0.508 0.71261,0 1.13595,0.52916 h 0.0212 v -2.37772 z m -2.53294,2.86456 q -0.254,0.32455 -0.254,0.762 0,0.43744 0.254,0.76905 0.26105,0.33161 0.71966,0.33161 0.4445,0 0.71967,-0.33161 0.27517,-0.33161 0.27517,-0.75494 0,-0.42334 -0.27517,-0.762 -0.27517,-0.33867 -0.71967,-0.33867 -0.45861,0 -0.71966,0.32456 z"
           style="font-style:normal;font-variant:normal;font-weight:normal;font-stretch:normal;font-size:7.05555534px;font-family:'Avenir Next LT Pro';-inkscape-font-specification:'Avenir Next LT Pro';fill:#ffffff;stroke-width:0.26458332"
           id="path77" />
        <path
           inkscape:connector-curvature="0"
           d="m 120.7056,212.51515 h 1.73567 q 0,-0.35278 -0.20461,-0.58561 -0.20461,-0.23283 -0.59267,-0.23283 -0.37394,0 -0.64205,0.23283 -0.26811,0.23283 -0.29634,0.58561 z m 2.58234,0.381 q 0,0.14817 -0.007,0.22578 h -2.57528 q 0.0282,0.35278 0.31045,0.59266 0.28222,0.23989 0.65616,0.23989 0.58562,0 0.89606,-0.43744 l 0.56444,0.45155 q -0.50094,0.67734 -1.45344,0.67734 -0.79728,0 -1.31233,-0.47978 -0.508,-0.47978 -0.508,-1.29117 0,-0.81139 0.508,-1.31233 0.508,-0.50094 1.28411,-0.50094 0.73378,0 1.18533,0.47272 0.45156,0.47272 0.45156,1.36172 z"
           style="font-style:normal;font-variant:normal;font-weight:normal;font-stretch:normal;font-size:7.05555534px;font-family:'Avenir Next LT Pro';-inkscape-font-specification:'Avenir Next LT Pro';fill:#ffffff;stroke-width:0.26458332"
           id="path79" />
        <path
           inkscape:connector-curvature="0"
           d="m 124.10792,214.54715 v -3.38667 h 0.80434 v 0.54328 h 0.0141 q 0.11994,-0.26811 0.40216,-0.45155 0.28928,-0.1905 0.64911,-0.1905 0.62089,0 0.93134,0.40216 0.3175,0.39511 0.3175,0.96661 v 2.11667 h -0.84667 v -1.87678 q 0,-0.90311 -0.635,-0.90311 -0.381,0 -0.58561,0.27517 -0.20461,0.26811 -0.20461,0.64205 v 1.86267 z"
           style="font-style:normal;font-variant:normal;font-weight:normal;font-stretch:normal;font-size:7.05555534px;font-family:'Avenir Next LT Pro';-inkscape-font-specification:'Avenir Next LT Pro';fill:#ffffff;stroke-width:0.26458332"
           id="path81" />
        <path
           inkscape:connector-curvature="0"
           d="m 128.22859,214.43426 q -0.16933,-0.15522 -0.16933,-0.381 0,-0.22578 0.16227,-0.38805 0.16934,-0.16228 0.40217,-0.16228 0.23283,0 0.39511,0.15522 0.16933,0.15522 0.16933,0.381 0,0.22578 -0.16933,0.38806 -0.16228,0.16227 -0.39511,0.16227 -0.22578,0 -0.39511,-0.15522 z"
           style="font-style:normal;font-variant:normal;font-weight:normal;font-stretch:normal;font-size:7.05555534px;font-family:'Avenir Next LT Pro';-inkscape-font-specification:'Avenir Next LT Pro';fill:#ffffff;stroke-width:0.26458332"
           id="path83" />
        <path
           inkscape:connector-curvature="0"
           d="m 130.06138,214.54715 v -3.38667 h 0.84667 v 3.38667 z m 0.0353,-4.17689 q -0.15522,-0.15522 -0.15522,-0.35983 0,-0.20461 0.15522,-0.35278 0.15522,-0.15522 0.381,-0.15522 0.23283,0 0.38805,0.14816 0.16228,0.14112 0.16228,0.35984 0,0.21872 -0.16228,0.36689 -0.15522,0.14111 -0.38805,0.14111 -0.22578,0 -0.381,-0.14817 z"
           style="font-style:normal;font-variant:normal;font-weight:normal;font-stretch:normal;font-size:7.05555534px;font-family:'Avenir Next LT Pro';-inkscape-font-specification:'Avenir Next LT Pro';fill:#ffffff;stroke-width:0.26458332"
           id="path85" />
        <path
           inkscape:connector-curvature="0"
           d="m 131.93518,214.54715 v -3.38667 h 0.80433 v 0.54328 h 0.0141 q 0.11994,-0.26811 0.40216,-0.45155 0.28928,-0.1905 0.64911,-0.1905 0.62089,0 0.93134,0.40216 0.3175,0.39511 0.3175,0.96661 v 2.11667 h -0.84667 v -1.87678 q 0,-0.90311 -0.635,-0.90311 -0.381,0 -0.58561,0.27517 -0.20461,0.26811 -0.20461,0.64205 v 1.86267 z"
           style="font-style:normal;font-variant:normal;font-weight:normal;font-stretch:normal;font-size:7.05555534px;font-family:'Avenir Next LT Pro';-inkscape-font-specification:'Avenir Next LT Pro';fill:#ffffff;stroke-width:0.26458332"
           id="path87" />
        <path
           inkscape:connector-curvature="0"
           d="m 136.17579,214.54715 v -2.70933 h -0.64205 v -0.67734 h 0.64205 v -0.50094 q 0,-0.68439 0.3175,-1.10772 0.3175,-0.42334 1.05128,-0.42334 0.254,0 0.43039,0.0494 l -0.0565,0.71967 q -0.16227,-0.0494 -0.32455,-0.0494 -0.5715,0 -0.5715,0.762 v 0.55033 h 0.78317 v 0.67734 h -0.78317 v 2.70933 z"
           style="font-style:normal;font-variant:normal;font-weight:normal;font-stretch:normal;font-size:7.05555534px;font-family:'Avenir Next LT Pro';-inkscape-font-specification:'Avenir Next LT Pro';fill:#ffffff;stroke-width:0.26458332"
           id="path89" />
        <path
           inkscape:connector-curvature="0"
           d="m 138.13172,212.83971 q 0,-0.78317 0.52916,-1.27706 0.52917,-0.50094 1.31234,-0.50094 0.78316,0 1.31233,0.50094 0.52917,0.49389 0.52917,1.27706 0,0.79022 -0.53622,1.29822 -0.52917,0.508 -1.30528,0.508 -0.77611,0 -1.31234,-0.508 -0.52916,-0.508 -0.52916,-1.29822 z m 1.11478,-0.762 q -0.254,0.32455 -0.254,0.762 0,0.43744 0.254,0.76905 0.254,0.33161 0.72672,0.33161 0.47272,0 0.72672,-0.33161 0.254,-0.33161 0.254,-0.76905 0,-0.43745 -0.254,-0.762 -0.254,-0.32456 -0.72672,-0.32456 -0.47272,0 -0.72672,0.32456 z"
           style="font-style:normal;font-variant:normal;font-weight:normal;font-stretch:normal;font-size:7.05555534px;font-family:'Avenir Next LT Pro';-inkscape-font-specification:'Avenir Next LT Pro';fill:#ffffff;stroke-width:0.26458332"
           id="path91" />
      </g>
    </g>
    <path
       inkscape:connector-curvature="0"
       id="path4672"
       d="M 7.7294119,71.999997 H 5.9999997 v -1.729423 -1.729428 h 1.7294122 1.7294119 v 1.729428 1.729423 z m 0,-0.494125 H 8.964706 V 70.270574 69.035271 H 7.7294119 6.4941179 v 1.235303 1.235298 z m 0,-0.494117 H 6.9882353 v -0.741181 -0.741182 h 0.7411766 0.7411763 v 0.741182 0.741181 z m 2.9647061,0.988242 H 9.9529416 v -0.494125 -0.494117 h 0.4941174 0.494118 v 0.247061 0.247056 h 0.247059 0.247059 v -0.494117 -0.494121 h -0.247059 -0.247059 v -0.24706 -0.247065 h 0.247059 0.247059 v -0.247056 -0.247061 h 0.247059 0.247059 v -0.247064 -0.247057 h 0.247058 0.24706 v 0.247057 0.247064 h 0.247058 0.247059 v -0.247064 -0.247057 h 0.247059 0.247059 v 0.494121 0.494117 h -0.494118 -0.494117 v -0.247056 -0.247061 h -0.24706 -0.247058 v 0.247061 0.247056 h -0.247059 -0.247059 v 0.247065 0.24706 h 0.247059 0.247059 v -0.24706 -0.247065 h 0.247058 0.24706 v 0.247065 0.24706 h 0.494117 0.494118 v 0.247057 0.247064 h 0.247059 0.247059 v 0.247061 0.247056 h 0.247059 0.247058 v -0.247056 -0.247061 h -0.247058 -0.247059 v -1.482363 -1.482363 h -0.247059 -0.247059 v 0.247061 0.247056 H 12.917648 12.423531 V 68.29409 68.047029 h -0.24706 -0.247058 v -0.247064 -0.247057 h 0.247058 0.24706 v -0.24706 -0.247065 h -0.24706 -0.247058 v 0.247065 0.24706 h -0.247059 -0.247059 v 0.741182 0.741181 h -0.494118 -0.494118 v 0.494121 0.494117 H 10.200001 9.9529416 v -0.494117 -0.494121 h 0.2470594 0.247058 v -0.24706 -0.247065 H 10.200001 9.9529416 V 68.29409 68.047029 H 9.2117649 8.4705882 V 67.799965 67.552908 H 8.964706 9.4588238 v -0.24706 -0.247065 H 9.2117649 8.964706 V 66.811727 66.564666 H 7.9764704 6.9882353 V 66.317602 66.070545 H 6.7411764 6.4941179 v 0.247057 0.247064 H 6.2470586 5.9999997 v -0.741181 -0.741182 h 0.4941182 0.4941174 v 0.247061 0.247056 h 0.2470589 0.2470589 v 0.247065 0.24706 h 0.2470588 0.2470585 v -0.24706 -0.247065 h 0.2470589 0.2470589 v 0.247065 0.24706 H 8.7176471 8.964706 v 0.247057 0.247064 H 9.2117649 9.4588238 V 66.317602 66.070545 H 9.2117649 8.964706 V 65.823485 65.57642 H 9.2117649 9.4588238 V 65.329364 65.082303 H 9.2117649 8.964706 v -0.247065 -0.247056 h 0.2470589 0.2470589 v -0.24706 -0.247065 H 8.964706 8.4705882 v 0.494125 0.494121 H 8.2235293 7.9764704 v 0.247061 0.247056 H 7.7294119 7.4823531 V 64.835238 64.094057 H 7.7294119 7.9764704 V 63.847001 63.59994 h 0.7411767 0.7411767 v 0.247061 0.247056 h 0.4941178 0.4941174 v 0.247065 0.24706 H 10.200001 9.9529416 v 0.247056 0.247065 h 0.2470594 0.247058 v -0.247065 -0.247056 h 0.494118 0.494118 v 0.247056 0.247065 h -0.247059 -0.247059 v 0.247061 0.247056 H 10.447059 9.9529416 v 0.494125 0.494121 H 9.7058827 9.4588238 v 0.247061 0.247056 h 0.2470589 0.2470589 v 0.494125 0.494121 h 0.4941174 0.494118 v -0.247064 -0.247057 h -0.247059 -0.247059 v -0.24706 -0.247065 h 0.494118 0.494118 v -0.247056 -0.247061 h 0.247059 0.247059 v -0.247064 -0.247057 h 0.247058 0.24706 v 0.247057 0.247064 h 0.494117 0.494118 v -0.247064 -0.247057 h 0.494118 0.494117 v -0.24706 -0.247065 h 0.741177 0.741177 v -0.247056 -0.247061 h 0.247059 0.247059 v 0.247061 0.247056 h -0.247059 -0.247059 v 0.247065 0.24706 h 0.247059 0.247059 v -0.24706 -0.247065 h 0.247059 0.247059 v -0.247056 -0.247061 h -0.247059 -0.247059 v -0.247065 -0.247056 h -0.247059 -0.247059 v -0.24706 -0.247065 H 15.635296 15.388237 V 63.847001 63.59994 h 0.247059 0.247059 v 0.247061 0.247056 h 0.247059 0.247059 V 63.847001 63.59994 h 0.988236 0.988235 v 0.247061 0.247056 h -0.247058 -0.24706 v 0.247065 0.24706 h -0.247058 -0.247059 v -0.24706 -0.247065 H 17.11765 16.870591 v 0.247065 0.24706 h 0.247059 0.247059 v 0.247056 0.247065 h 0.247059 0.247058 v 0.247061 0.247056 h 0.24706 0.247058 v 0.247065 0.24706 h -0.247058 -0.24706 v 0.247057 0.247064 h -0.247058 -0.247059 v -0.247064 -0.247057 h -0.494118 -0.494118 v 0.247057 0.247064 h 0.494118 0.494118 v 0.247061 0.247056 h 0.247059 0.247058 v 0.247065 0.24706 h -0.247058 -0.247059 v 0.494121 0.494117 H 17.11765 16.870591 V 68.29409 68.047029 h -0.247059 -0.247059 v 0.247061 0.247056 h 0.247059 0.247059 v 0.247065 0.24706 h 0.741177 0.741176 v 0.741182 0.741181 h -0.247058 -0.24706 v 0.494121 0.494117 h 0.24706 0.247058 v 0.247065 0.24706 h -0.741176 -0.741177 v -0.24706 -0.247065 h -0.741177 -0.741177 v -0.494117 -0.494121 h 0.247059 0.247059 v 0.247057 0.247064 h 0.741177 0.741177 v -0.247064 -0.247057 h -0.494118 -0.494118 v -0.24706 -0.247065 h 0.247059 0.247059 v -0.247056 -0.247061 h -0.247059 -0.247059 v 0.247061 0.247056 H 15.635296 14.89412 v 0.988246 0.988242 h -0.494119 -0.494117 v -0.24706 -0.247065 h -0.247059 -0.247059 v -0.247056 -0.247061 h -0.247059 -0.247059 v 0.494117 0.494125 h -0.494117 -0.494118 v -0.24706 -0.247065 h 0.247058 0.24706 v -0.247056 -0.247061 h -0.24706 -0.247058 v 0.247061 0.247056 h -0.247059 -0.247059 v 0.247065 0.24706 z m 6.91765,-1.976488 h 0.247058 v -0.247056 -0.247061 h -0.247058 -0.247059 v 0.247061 0.247056 z m -2.47059,-0.494117 h 0.741177 v -0.741181 -0.741182 h -0.741177 -0.741177 v 0.741182 0.741181 z m 0,-0.494121 H 14.89412 v -0.24706 -0.247065 h 0.247058 0.247059 v 0.247065 0.24706 z m -1.976471,-0.988242 h 0.247059 v -0.247064 -0.247057 h 0.494118 0.494117 v -0.24706 -0.247065 h 0.24706 0.247059 v 0.247065 0.24706 h 0.247058 0.247059 v -0.24706 -0.247065 H 15.141178 14.89412 v -0.247056 -0.247061 h 0.247058 0.247059 v 0.247061 0.247056 h 0.247059 0.247059 v 0.247065 0.24706 h 0.247059 0.247059 v -0.494125 -0.494117 h -0.247059 -0.247059 v -0.247064 -0.247057 h -0.741177 -0.741177 v 0.494121 0.494117 h -0.741176 -0.741177 v 0.494125 0.494121 z m -6.6705891,0 H 5.9999997 v -0.247064 -0.247057 h 0.4941182 0.4941174 v 0.247057 0.247064 z m 1.235294,-0.494121 H 7.4823531 v -0.24706 -0.247065 h 0.2470588 0.2470585 v 0.247065 0.24706 z m 3.2117651,-0.988242 h -0.494118 v -0.247064 -0.247057 h 0.494118 0.494118 v -0.24706 -0.247065 h 0.247059 0.247059 v -0.247056 -0.247061 h 0.247058 0.24706 v 0.247061 0.247056 h 0.247058 0.247059 v -0.247056 -0.247061 h 0.247059 0.247059 v -0.247065 -0.247056 h -0.494118 -0.494117 v -0.24706 -0.247065 h -0.24706 -0.247058 V 63.847001 63.59994 h 0.247058 0.24706 v -0.247065 -0.247056 h -0.24706 -0.247058 v -0.24706 -0.247065 h 0.247058 0.24706 v 0.247065 0.24706 h 0.247058 0.247059 v -0.24706 -0.247065 h 0.247059 0.247059 v 0.247065 0.24706 h -0.247059 -0.247059 v 0.494121 0.494117 h 0.247059 0.247059 V 63.847001 63.59994 h 0.247059 0.247059 v 0.494117 0.494125 h 0.247059 0.247058 v 0.247056 0.247065 h -0.247058 -0.247059 v 0.247061 0.247056 h -0.247059 -0.247059 v 0.247065 0.24706 h -0.494118 -0.494117 v -0.24706 -0.247065 h -0.24706 -0.247058 v 0.247065 0.24706 h -0.247059 -0.247059 v 0.247057 0.247064 z M 6.2470586,64.588182 H 5.9999997 V 64.094057 63.59994 h 0.4941182 0.4941174 v 0.247061 0.247056 H 6.7411764 6.4941179 v 0.247065 0.24706 z m 4.9411774,-0.494125 h -0.247059 v -0.741182 -0.741181 h -0.247059 -0.247059 v 0.247065 0.24706 H 10.200001 9.9529416 v -0.494125 -0.494117 h 0.2470594 0.247058 V 61.870512 61.623456 H 10.200001 9.9529416 v -0.988242 -0.988246 h 0.2470594 0.247058 v 0.494125 0.494121 h 0.247059 0.247059 v 0.24706 0.247057 h 0.247059 0.247059 v 0.988246 0.988242 h 0.247059 0.247059 v 0.247056 0.247065 h -0.247059 -0.247059 v 0.247061 0.247056 z M 7.7294119,63.105819 H 5.9999997 v -1.729423 -1.729428 h 1.7294122 1.7294119 v 1.729428 1.729423 z m 0,-0.494125 H 8.964706 V 61.376396 60.141093 H 7.7294119 6.4941179 v 1.235303 1.235298 z m 0,-0.494117 H 6.9882353 v -0.741181 -0.741182 h 0.7411766 0.7411763 v 0.741182 0.741181 z m 6.4235311,0.988242 h -0.247059 v -0.24706 -0.247065 h 0.247059 0.247058 v 0.247065 0.24706 z m 2.470589,0 H 14.89412 v -1.729423 -1.729428 h 1.729412 1.729412 v 1.729428 1.729423 z m 0,-0.494125 h 1.235294 v -1.235298 -1.235303 h -1.235294 -1.235295 v 1.235303 1.235298 z m 0,-0.494117 h -0.741177 v -0.741181 -0.741182 h 0.741177 0.741177 v 0.741182 0.741181 z m -4.447061,0 h -0.247058 v -0.741181 -0.741182 h -0.247059 -0.247059 v -0.247065 -0.247056 h 0.494118 0.494118 v -0.247061 -0.247064 h 0.988235 0.988235 v 0.247064 0.247061 h -0.741176 -0.741177 v 0.247056 0.247065 h -0.247059 -0.247058 v 0.741182 0.741181 z m 1.482354,0 h -0.741177 v -0.247065 -0.247056 h 0.247059 0.247059 v -0.24706 -0.247065 h -0.247059 -0.247059 v -0.247056 -0.247061 h 0.494118 0.494118 v 0.247061 0.247056 h 0.247059 0.247058 v 0.494125 0.494121 z"
       style="fill:#001e49;fill-opacity:1;stroke-width:0.16470647" />
  </g>
</svg>
